<svg xmlns="http://www.w3.org/2000/svg" viewBox="0 0 400 400" fill="none">
  <!-- Sketch-style decorative frame - hand-drawn look -->
  <path d="M8 8 L12 4 L16 8" stroke="currentColor" stroke-width="1.2" stroke-linecap="round" fill="none" opacity="0.6"/>
  <path d="M4 12 L4 8 L8 8" stroke="currentColor" stroke-width="1.2" stroke-linecap="round" fill="none" opacity="0.6"/>

  <path d="M392 8 L388 4 L384 8" stroke="currentColor" stroke-width="1.2" stroke-linecap="round" fill="none" opacity="0.6"/>
  <path d="M396 12 L396 8 L392 8" stroke="currentColor" stroke-width="1.2" stroke-linecap="round" fill="none" opacity="0.6"/>

  <path d="M8 392 L12 396 L16 392" stroke="currentColor" stroke-width="1.2" stroke-linecap="round" fill="none" opacity="0.6"/>
  <path d="M4 388 L4 392 L8 392" stroke="currentColor" stroke-width="1.2" stroke-linecap="round" fill="none" opacity="0.6"/>

  <path d="M392 392 L388 396 L384 392" stroke="currentColor" stroke-width="1.2" stroke-linecap="round" fill="none" opacity="0.6"/>
  <path d="M396 388 L396 392 L392 392" stroke="currentColor" stroke-width="1.2" stroke-linecap="round" fill="none" opacity="0.6"/>

  <!-- Top edge dashes -->
  <path d="M30 4 Q100 2 200 4 Q300 2 370 4" stroke="currentColor" stroke-width="0.8" stroke-linecap="round" fill="none" opacity="0.3" stroke-dasharray="4 6"/>
  <!-- Bottom edge dashes -->
  <path d="M30 396 Q100 398 200 396 Q300 398 370 396" stroke="currentColor" stroke-width="0.8" stroke-linecap="round" fill="none" opacity="0.3" stroke-dasharray="4 6"/>
  <!-- Left edge dashes -->
  <path d="M4 30 Q2 100 4 200 Q2 300 4 370" stroke="currentColor" stroke-width="0.8" stroke-linecap="round" fill="none" opacity="0.3" stroke-dasharray="4 6"/>
  <!-- Right edge dashes -->
  <path d="M396 30 Q398 100 396 200 Q398 300 396 370" stroke="currentColor" stroke-width="0.8" stroke-linecap="round" fill="none" opacity="0.3" stroke-dasharray="4 6"/>
</svg>
